<?xml version="1.0" standalone="no"?>
<!DOCTYPE svg PUBLIC "-//W3C//DTD SVG 20010904//EN"
 "http://www.w3.org/TR/2001/REC-SVG-20010904/DTD/svg10.dtd">
<svg version="1.0" xmlns="http://www.w3.org/2000/svg"
 width="1300.000000pt" height="1300.000000pt" viewBox="0 0 1300.000000 1300.000000"
 preserveAspectRatio="xMidYMid meet">
<g transform="translate(0.000000,1300.000000) scale(0.100000,-0.100000)"
fill="#865dff" stroke="none">
<path d="M10831 8321 c-7 -5 -29 -7 -47 -5 -32 3 -33 2 -23 -18 6 -11 7 -18 1
-14 -5 3 -12 -17 -15 -46 -4 -28 -12 -55 -19 -60 -10 -6 -10 -8 1 -8 11 0 10
-4 -5 -16 -10 -8 -13 -13 -6 -9 6 3 12 1 12 -4 0 -6 -5 -11 -11 -11 -8 0 -8
-5 1 -15 10 -12 9 -16 -5 -21 -13 -5 -14 -9 -3 -15 8 -6 9 -9 2 -9 -7 0 -15
-7 -18 -16 -4 -10 -2 -13 7 -8 9 6 9 4 -1 -8 -7 -8 -10 -23 -6 -32 3 -9 1 -16
-6 -16 -6 0 -9 -4 -6 -9 3 -4 -1 -17 -8 -27 -10 -13 -11 -23 -4 -31 7 -9 7
-13 -2 -13 -9 0 -9 -4 1 -17 10 -11 10 -14 2 -9 -8 4 -13 2 -13 -4 0 -6 -5 -8
-12 -4 -7 4 -8 3 -4 -5 4 -6 13 -8 19 -4 7 4 6 0 -2 -10 -7 -9 -10 -17 -6 -17
4 0 2 -7 -5 -15 -7 -8 -9 -15 -5 -15 4 0 1 -8 -6 -17 -12 -15 -12 -16 1 -8 12
7 13 6 3 -7 -7 -8 -10 -18 -6 -21 3 -4 0 -7 -8 -7 -11 0 -11 -2 1 -10 11 -7
11 -10 2 -10 -7 0 -12 -6 -11 -12 3 -26 -1 -39 -11 -33 -7 4 -7 -2 0 -19 7
-19 5 -29 -6 -41 -12 -11 -12 -15 -2 -15 10 0 10 -2 -1 -9 -7 -5 -10 -14 -7
-20 4 -6 0 -11 -11 -12 -10 0 -13 -3 -5 -6 14 -6 16 -33 2 -33 -5 0 -10 -7
-10 -16 0 -9 5 -13 13 -9 6 4 5 0 -5 -7 -13 -11 -14 -18 -5 -33 9 -17 9 -18
-5 -7 -14 11 -15 8 -13 -18 1 -17 -2 -30 -9 -30 -6 0 -2 -8 9 -17 13 -10 14
-14 4 -10 -9 3 -21 -4 -29 -16 -12 -21 -12 -21 5 -7 17 14 18 14 5 -10 -7 -14
-13 -26 -12 -27 7 -11 0 -23 -10 -17 -9 5 -9 2 1 -9 12 -15 11 -17 -5 -18 -18
0 -18 -1 -1 -8 17 -6 17 -8 4 -20 -9 -7 -14 -18 -11 -26 3 -7 1 -16 -5 -19 -5
-4 -8 -18 -5 -31 2 -14 0 -25 -5 -25 -6 0 -7 -7 -4 -17 5 -12 3 -14 -8 -8 -12
8 -12 6 0 -8 10 -12 10 -17 1 -17 -8 0 -10 -12 -7 -35 3 -19 2 -34 -2 -33 -18
2 -22 -4 -11 -17 10 -12 9 -16 -4 -21 -12 -5 -14 -10 -6 -19 7 -9 6 -16 -4
-24 -8 -7 -13 -23 -11 -36 1 -16 -3 -25 -12 -25 -8 0 -11 -5 -8 -10 4 -6 12
-7 18 -3 7 4 6 0 -2 -10 -7 -9 -10 -17 -6 -17 4 0 2 -6 -4 -13 -6 -8 -8 -17
-4 -20 3 -4 1 -7 -6 -7 -7 0 -9 -5 -5 -11 3 -6 0 -15 -7 -20 -11 -7 -11 -9 -1
-9 7 0 10 -5 7 -10 -4 -6 -11 -7 -17 -4 -6 4 -6 -2 1 -15 9 -16 9 -21 -1 -21
-9 0 -9 -3 2 -10 12 -7 12 -10 1 -10 -7 0 -11 -6 -8 -15 4 -8 2 -17 -3 -20 -6
-4 -10 -15 -10 -26 0 -10 -6 -19 -12 -19 -9 0 -8 -4 2 -10 13 -9 13 -10 0 -10
-13 0 -13 -1 0 -10 13 -9 7 -14 -12 -11 -4 0 -5 -6 -2 -14 4 -9 0 -23 -7 -32
-12 -14 -12 -16 0 -8 11 6 13 4 8 -9 -4 -10 -7 -20 -7 -22 0 -3 -6 -2 -12 2
-10 5 -10 4 -1 -6 10 -11 9 -16 -5 -27 -9 -8 -11 -12 -4 -8 15 8 17 -21 2 -30
-6 -4 -9 -20 -6 -35 3 -20 0 -27 -8 -24 -7 3 -13 -2 -13 -10 0 -8 5 -12 11 -9
6 4 5 -1 -2 -10 -8 -9 -11 -21 -7 -27 4 -6 -1 -21 -12 -32 -12 -14 -13 -19 -3
-13 11 6 11 4 -2 -11 -11 -13 -14 -24 -8 -34 9 -15 3 -33 -9 -26 -4 3 -8 -1
-8 -9 0 -8 4 -12 9 -9 4 3 3 -7 -2 -22 -6 -15 -8 -34 -6 -41 4 -9 1 -11 -6 -7
-8 5 -9 2 -4 -11 6 -16 4 -16 -10 -4 -16 13 -16 12 -6 -8 14 -26 15 -36 3 -29
-5 4 -7 -4 -3 -16 3 -14 2 -19 -6 -14 -7 4 -12 2 -12 -3 0 -6 5 -11 11 -11 8
0 8 -4 -1 -15 -6 -8 -9 -18 -6 -23 3 -6 -1 -15 -9 -22 -8 -7 -12 -16 -9 -22 3
-5 0 -16 -8 -25 -9 -12 -9 -15 0 -9 6 4 12 2 12 -3 0 -6 -8 -11 -17 -12 -15 0
-15 -2 2 -9 11 -5 14 -9 6 -9 -9 -1 -11 -9 -7 -28 4 -18 3 -23 -2 -15 -7 11
-10 9 -15 -7 -3 -14 -1 -19 6 -14 7 3 3 -4 -8 -17 -11 -13 -14 -20 -7 -16 15
9 17 -10 2 -19 -13 -8 -9 -47 5 -58 6 -5 1 -6 -10 -3 -19 5 -21 2 -19 -39 1
-29 -2 -42 -9 -38 -6 4 -8 0 -4 -10 4 -12 1 -17 -11 -17 -10 0 -13 -3 -7 -8
12 -8 16 -54 5 -47 -4 3 -11 -3 -14 -12 -4 -9 -1 -20 6 -25 11 -6 10 -8 0 -8
-8 0 -12 -8 -10 -17 2 -10 -3 -24 -12 -31 -13 -12 -13 -13 4 -7 19 6 19 5 2
-14 -10 -11 -15 -25 -11 -30 3 -6 2 -11 -4 -11 -5 0 -8 -12 -5 -26 3 -17 1
-23 -7 -19 -7 5 -9 1 -5 -13 5 -13 1 -22 -10 -26 -12 -5 -14 -10 -5 -19 8 -10
7 -17 -2 -27 -9 -10 -9 -11 1 -5 11 6 11 3 3 -14 -6 -12 -16 -30 -22 -42 -8
-16 -8 -19 2 -14 7 5 10 3 7 -6 -3 -8 -11 -13 -18 -11 -11 3 -11 0 0 -12 9
-11 9 -16 1 -16 -9 0 -9 -5 0 -21 9 -17 8 -20 -2 -14 -9 6 -10 3 -5 -10 6 -16
4 -16 -10 -4 -16 13 -16 12 -5 -8 9 -18 9 -23 -1 -23 -9 0 -9 -3 2 -10 12 -8
12 -10 1 -10 -8 0 -11 -3 -8 -7 4 -3 1 -13 -6 -21 -9 -13 -9 -14 0 -8 9 5 11
2 7 -8 -3 -9 -10 -13 -15 -10 -5 3 -5 -6 1 -20 7 -20 6 -27 -8 -35 -13 -8 -13
-10 -3 -11 11 0 10 -4 -5 -16 -10 -8 -13 -13 -6 -9 6 3 12 1 12 -4 0 -6 -4
-11 -9 -11 -4 0 -6 -11 -3 -25 2 -14 0 -25 -6 -25 -5 0 -13 -7 -16 -16 -3 -8
-2 -12 3 -9 5 3 13 0 16 -6 4 -5 14 -8 22 -5 8 3 24 1 35 -5 16 -9 19 -8 13 1
-6 10 -1 11 18 6 14 -3 29 -1 32 4 4 6 12 7 18 3 7 -4 35 -8 62 -8 28 0 56 -5
64 -9 9 -6 12 -5 8 1 -4 7 26 10 91 8 118 -3 153 2 145 21 -3 8 0 21 7 29 7 9
10 18 6 22 -3 3 -6 0 -6 -7 0 -7 -3 -10 -7 -7 -3 4 2 17 13 29 10 12 14 19 8
15 -16 -9 -10 33 7 44 12 7 12 9 -1 9 -9 0 -11 3 -5 8 13 9 37 84 24 76 -5 -3
-6 2 -3 10 3 9 11 13 17 9 5 -3 7 -2 4 4 -11 18 -16 64 -6 58 5 -4 6 -11 3
-17 -4 -6 -2 -8 3 -5 6 4 9 20 8 37 -2 20 3 34 14 40 9 5 11 10 5 10 -6 0 -11
7 -11 15 0 8 4 12 9 9 4 -3 6 5 5 18 -2 13 3 29 12 36 9 8 10 11 4 7 -18 -9
-16 10 2 25 11 9 12 17 4 31 -6 13 -6 19 0 19 6 0 7 7 4 17 -5 12 -3 14 8 8
11 -7 11 -5 -1 10 -9 11 -10 16 -2 11 8 -5 12 1 12 23 0 16 6 32 13 34 10 4
10 6 0 6 -7 1 -13 6 -13 12 0 5 5 7 10 4 6 -3 11 4 11 17 2 37 3 42 18 67 7
13 8 20 2 17 -6 -4 -11 0 -11 8 0 9 8 16 18 16 9 0 13 4 7 8 -14 10 -14 61 1
55 8 -3 10 5 6 23 -3 19 -1 25 7 20 6 -4 11 -3 11 3 0 5 -6 12 -12 14 -10 4
-10 6 0 6 7 1 10 6 7 11 -3 6 -1 10 5 10 8 0 8 6 0 19 -8 16 -6 22 7 30 14 8
15 11 3 11 -12 0 -12 3 2 11 10 5 15 16 11 24 -3 9 1 23 8 32 8 9 9 14 3 10
-6 -3 -11 0 -11 8 0 8 4 12 8 9 4 -2 10 0 14 6 3 5 -2 10 -11 10 -16 0 -16 1
1 14 20 15 31 50 12 40 -8 -5 -7 -2 1 7 6 7 12 26 12 42 0 15 4 26 9 23 5 -4
7 4 3 16 -4 15 -2 19 7 13 10 -6 11 -3 2 14 -10 18 -9 21 6 21 15 0 15 2 4 9
-12 8 -12 12 -2 25 7 8 10 20 6 26 -3 5 -2 10 3 10 6 0 10 10 10 23 1 43 11
80 24 88 10 7 10 9 0 9 -6 0 -11 5 -10 12 5 20 22 36 33 30 6 -3 2 4 -8 15
-16 18 -16 21 -2 33 9 7 13 21 10 31 -4 11 -2 19 4 19 6 0 11 5 11 11 0 5 -5
7 -11 3 -8 -5 -8 -1 0 13 6 11 7 24 3 28 -4 5 1 5 10 2 15 -5 16 -2 8 19 -7
17 -7 23 0 19 7 -4 9 3 6 20 -4 20 -2 25 9 21 8 -3 17 0 21 6 4 6 3 8 -4 4
-17 -10 -19 37 -2 52 8 8 9 11 3 7 -17 -8 -16 10 1 27 10 11 11 19 4 33 -7 12
-7 16 0 11 5 -3 12 1 16 9 3 8 1 15 -4 15 -6 0 -10 5 -10 11 0 5 5 7 10 4 6
-4 10 6 10 24 0 16 6 32 13 34 10 4 10 6 0 6 -7 1 -13 6 -13 12 0 6 7 9 15 6
11 -5 12 -1 4 20 -8 22 -7 24 7 19 14 -5 15 -4 5 8 -9 11 -9 16 0 21 8 6 7 10
-2 16 -11 7 -9 9 6 10 11 0 14 3 8 6 -19 7 -16 23 5 23 10 0 13 3 7 8 -15 10
-9 38 16 86 8 14 7 16 -2 10 -9 -5 -10 -2 -6 10 4 10 7 20 7 22 0 3 4 3 9 0
11 -7 9 13 -2 32 -5 7 -3 12 3 12 7 0 10 7 6 15 -3 8 -1 15 3 15 5 0 8 18 7
39 0 22 2 37 7 34 4 -2 7 1 7 7 0 6 5 8 11 4 8 -4 8 0 0 15 -8 14 -8 21 -1 21
5 0 10 5 10 11 0 5 -4 8 -9 5 -5 -4 -4 5 2 19 7 14 17 25 22 26 6 0 1 4 -10 9
-15 6 -16 9 -4 9 10 1 15 9 14 23 -1 13 5 29 12 36 10 11 11 17 2 28 -9 11 -8
14 7 14 15 0 16 2 5 9 -12 8 -12 12 -2 25 7 8 10 20 6 26 -3 5 -1 10 4 10 6 0
11 4 11 10 0 5 -8 6 -17 3 -15 -6 -16 -5 -3 9 8 9 18 14 22 11 4 -2 5 4 1 13
-4 10 -2 15 4 11 5 -3 10 0 10 8 0 8 -4 12 -9 9 -13 -8 -9 10 6 32 10 12 11
23 5 31 -7 7 -6 14 2 19 8 5 9 3 4 -6 -5 -9 -4 -11 3 -6 9 5 9 13 2 27 -9 15
-7 19 7 19 15 0 16 2 3 10 -13 9 -13 10 0 10 13 0 13 1 0 10 -14 9 -7 14 13
11 4 -1 3 7 -2 18 -8 14 -8 20 0 23 6 2 12 16 12 31 1 15 6 27 11 27 5 0 3 7
-4 15 -10 12 -9 16 5 21 13 5 14 9 3 15 -10 6 -10 11 0 21 6 6 12 20 12 30 0
10 6 18 13 18 8 0 7 4 -3 10 -13 9 -13 10 0 10 13 0 13 1 0 10 -12 8 -12 10 5
10 17 0 17 2 5 10 -11 7 -11 10 -2 10 7 0 12 8 10 18 -1 9 1 23 6 31 7 10 5
12 -5 7 -8 -4 -6 -1 3 7 13 10 15 16 6 25 -9 9 -9 12 0 12 6 0 9 7 5 17 -4 10
-2 14 5 9 6 -3 13 -2 16 3 4 5 1 13 -5 17 -8 5 -9 3 -4 -6 5 -9 4 -11 -4 -6
-8 5 -7 13 4 29 18 26 19 41 3 31 -7 -4 -4 3 7 16 13 15 15 21 5 16 -10 -5
-10 -3 2 6 11 10 13 19 7 30 -7 12 -4 20 8 27 14 8 8 9 -24 7 -24 -2 -44 2
-47 8 -3 7 -5 6 -5 -2 -1 -9 -6 -10 -18 -3 -22 11 -31 11 -60 0 -16 -6 -23 -5
-23 4 0 8 -3 8 -8 2 -7 -11 -48 -12 -58 -2 -3 3 -17 2 -30 -3 -14 -6 -26 -6
-29 1 -4 5 -12 6 -18 2 -17 -11 -67 -11 -67 0 0 5 -6 5 -13 -2 -8 -6 -17 -7
-23 -1 -5 5 -15 5 -23 1z m-613 -2406 c-3 -3 -9 2 -12 12 -6 14 -5 15 5 6 7
-7 10 -15 7 -18z"/>
<path d="M1047 7143 c-3 -4 -30 -8 -61 -7 -30 0 -53 -3 -50 -8 3 -4 0 -8 -5
-8 -6 0 -10 -6 -9 -12 2 -7 -3 -12 -9 -10 -7 1 -13 -5 -13 -13 0 -8 -5 -15
-10 -15 -6 0 -15 -11 -22 -25 -6 -13 -15 -22 -20 -19 -4 3 -12 -5 -17 -18 -6
-13 -10 -19 -10 -13 -1 5 -8 -1 -17 -13 -8 -12 -20 -19 -26 -16 -6 4 -8 2 -5
-3 4 -6 -9 -27 -29 -47 -20 -20 -32 -36 -28 -36 5 -1 -2 -7 -16 -15 -14 -8
-22 -14 -18 -15 11 0 -41 -50 -52 -50 -6 0 -10 -9 -10 -20 0 -11 -3 -19 -7
-18 -5 2 -8 -1 -8 -5 0 -5 -13 -15 -28 -24 -18 -9 -27 -20 -23 -29 3 -8 2 -13
-3 -10 -4 3 -17 -2 -27 -10 -10 -9 -12 -12 -4 -9 8 4 -4 -10 -27 -30 -24 -20
-43 -43 -43 -51 0 -9 -4 -12 -10 -9 -5 3 -10 -1 -10 -9 0 -9 -7 -16 -17 -16
-9 0 -14 -3 -10 -6 3 -3 -5 -17 -19 -31 -13 -13 -24 -28 -24 -34 0 -6 -5 -7
-11 -4 -6 4 -13 -2 -16 -14 -3 -11 -9 -18 -14 -15 -5 3 -6 -2 -3 -10 3 -9 10
-16 16 -16 5 0 6 -4 3 -10 -3 -5 -1 -10 5 -10 6 0 8 -5 4 -12 -4 -6 -3 -8 4
-4 13 8 42 -20 42 -41 0 -9 3 -14 6 -10 8 7 54 -38 54 -53 0 -6 4 -8 10 -5 6
3 10 -1 10 -10 0 -8 9 -19 19 -23 11 -4 21 -11 23 -17 2 -5 6 -9 10 -8 5 2 8
-6 8 -17 0 -11 4 -20 8 -20 5 0 25 -16 45 -35 20 -19 33 -35 30 -35 -3 0 7
-12 23 -27 16 -15 28 -31 27 -35 -2 -4 4 -8 12 -8 8 0 15 -5 15 -11 0 -5 4 -7
10 -4 6 3 7 -1 4 -9 -3 -9 -1 -16 6 -16 6 0 9 -4 5 -9 -3 -6 4 -8 15 -6 11 2
18 0 15 -5 -7 -12 35 -60 52 -60 8 0 12 -4 9 -8 -3 -5 5 -18 17 -28 12 -11 33
-34 47 -51 13 -17 29 -29 34 -26 5 4 7 0 4 -9 -4 -9 4 -21 23 -32 16 -9 29
-14 29 -10 0 3 6 1 14 -5 11 -9 16 -9 21 -1 5 8 10 9 18 1 6 -6 16 -7 28 -1
12 7 20 6 24 0 5 -8 11 -8 20 0 10 8 15 8 20 0 5 -8 10 -8 20 0 8 7 15 7 19 1
4 -6 18 -6 35 -1 15 4 34 4 41 0 7 -5 24 -4 37 1 14 5 23 5 23 -1 0 -6 9 -6
25 0 15 6 27 6 30 0 3 -6 15 -6 30 0 15 6 27 6 30 0 3 -6 15 -6 30 0 16 6 27
6 31 -1 4 -7 10 -6 19 1 9 8 15 8 20 0 4 -7 12 -7 25 0 13 7 21 7 25 0 5 -8
12 -7 23 2 13 11 14 11 8 0 -7 -11 -4 -12 12 -3 21 11 21 12 -10 41 -17 17
-35 30 -39 30 -5 0 -8 3 -8 8 3 19 -2 33 -11 27 -5 -3 -16 7 -24 22 -8 15 -15
24 -16 20 0 -4 -6 -2 -14 5 -7 7 -11 19 -9 26 3 8 0 10 -10 7 -9 -4 -16 2 -20
15 -3 12 -10 19 -16 16 -5 -4 -12 3 -16 14 -3 11 -11 20 -16 20 -6 0 -7 5 -4
10 3 6 -1 10 -9 10 -8 0 -18 5 -22 12 -5 7 -2 9 7 4 8 -4 6 -1 -3 7 -10 8 -18
20 -18 28 0 11 -2 11 -10 -1 -7 -11 -10 -11 -10 -2 0 7 -14 26 -31 42 -20 18
-28 33 -24 41 5 8 4 10 -4 5 -12 -8 -41 16 -41 33 0 6 -7 11 -15 11 -8 0 -16
5 -16 10 -1 6 -2 14 -3 19 0 5 -5 13 -10 18 -5 5 -6 2 -1 -7 4 -8 -2 -5 -14 7
-11 12 -21 27 -21 33 0 5 -3 9 -7 7 -5 -1 -9 2 -10 7 0 5 -8 13 -17 18 -9 5
-14 14 -10 19 3 5 2 9 -3 8 -20 -3 -34 2 -28 11 3 6 1 10 -5 10 -6 0 -8 5 -4
12 4 6 3 8 -3 5 -11 -7 -45 28 -56 56 -3 9 -2 17 4 17 6 0 7 5 3 12 -5 7 -3 8
5 4 8 -5 14 0 18 13 5 19 15 26 36 22 4 -1 7 5 5 13 -3 13 59 76 75 76 5 0 5
5 2 10 -3 6 -1 10 5 10 6 0 8 5 5 10 -3 6 1 10 10 10 9 0 13 5 10 10 -3 6 0
10 8 10 7 0 20 11 27 25 7 13 17 22 22 19 4 -3 8 1 8 9 0 8 7 18 16 21 9 3 12
11 8 18 -5 8 -2 9 10 5 9 -4 14 -3 11 2 -3 5 4 16 15 24 11 7 17 17 13 20 -3
4 2 7 12 7 10 0 16 3 12 6 -8 8 18 34 33 34 7 0 10 7 6 15 -3 8 -1 15 4 15 13
0 50 37 50 50 0 6 4 9 9 8 5 -2 9 0 10 4 1 4 26 33 57 63 30 31 52 60 49 65
-4 6 -3 10 2 9 19 -3 34 2 29 9 -7 11 30 42 40 34 4 -4 4 -2 1 5 -4 7 -31 10
-68 10 -33 -1 -63 2 -66 7 -3 4 -9 2 -14 -5 -6 -11 -11 -11 -20 -2 -8 8 -18 9
-30 2 -21 -11 -41 -9 -51 6 -5 7 -8 7 -8 0 0 -11 -180 -12 -199 -1 -6 4 -11 3
-11 -3 0 -13 -53 -9 -62 4 -5 6 -8 5 -8 -4 0 -10 -3 -11 -14 -2 -8 7 -16 8
-19 4z m-557 -517 c0 -2 -8 -10 -17 -17 -16 -13 -17 -12 -4 4 13 16 21 21 21
13z"/>
<path d="M11470 7142 c0 -5 -24 -8 -54 -6 l-55 2 45 -44 c24 -25 44 -47 44
-50 0 -11 28 -33 34 -27 3 4 6 -1 6 -10 0 -9 5 -17 11 -17 5 0 7 -5 3 -12 -4
-6 -3 -8 3 -5 9 6 43 -26 43 -41 0 -10 38 -42 49 -42 6 0 13 -9 16 -20 3 -11
11 -20 16 -20 6 0 7 -4 4 -10 -3 -5 1 -10 10 -10 8 0 19 -8 22 -17 9 -24 29
-43 37 -36 3 4 6 -1 6 -9 0 -9 7 -18 15 -22 8 -3 15 -12 15 -21 0 -8 7 -15 15
-15 8 0 15 -7 15 -16 0 -8 3 -13 8 -11 4 3 12 -1 19 -8 10 -11 10 -15 0 -18
-7 -3 -2 -6 11 -6 13 -1 21 -5 18 -9 -6 -10 30 -43 38 -35 3 4 6 -1 6 -10 0
-10 4 -17 8 -17 5 0 15 -11 22 -25 7 -13 18 -21 23 -18 7 4 8 -1 3 -13 -4 -10
-4 -15 0 -11 11 10 35 -13 27 -27 -3 -6 -3 -8 2 -4 4 4 17 -2 27 -14 11 -13
15 -24 9 -26 -6 -2 -9 -8 -5 -13 3 -5 0 -9 -6 -9 -6 0 -8 -4 -5 -10 3 -5 -1
-10 -10 -10 -9 0 -13 -4 -10 -10 3 -5 -1 -10 -9 -10 -9 0 -16 -5 -16 -11 0 -5
-4 -7 -10 -4 -6 3 -7 -1 -4 -10 4 -10 2 -15 -7 -13 -7 2 -13 -3 -14 -10 0 -15
-26 -33 -37 -26 -4 3 -5 -2 -2 -10 3 -8 -3 -19 -15 -26 -12 -6 -21 -18 -21
-26 0 -8 -5 -12 -11 -9 -6 4 -13 -2 -16 -14 -3 -12 -12 -21 -21 -21 -8 0 -13
-3 -9 -6 7 -8 -36 -53 -45 -47 -5 2 -8 -3 -8 -11 0 -8 -9 -20 -20 -26 -11 -6
-18 -15 -15 -21 4 -5 -1 -9 -10 -9 -10 0 -13 -5 -9 -12 5 -8 2 -9 -9 -5 -9 3
-16 3 -14 -1 3 -11 -29 -52 -36 -45 -4 3 -7 -1 -7 -10 0 -10 -4 -17 -9 -17 -5
0 -12 -9 -16 -20 -3 -11 -9 -19 -13 -17 -4 1 -8 -2 -10 -8 -2 -6 -13 -15 -25
-22 -12 -7 -19 -12 -15 -13 13 0 -26 -40 -39 -40 -7 0 -12 -3 -12 -7 3 -17 -1
-36 -6 -31 -10 10 -64 -52 -59 -67 4 -8 11 -12 17 -8 9 5 68 8 82 3 3 -1 21
-2 40 -2 19 0 36 1 38 2 9 6 49 5 53 -1 4 -8 42 -4 51 5 3 3 16 1 29 -4 13 -5
25 -6 28 -2 6 10 48 8 64 -2 7 -4 18 -4 25 1 14 11 27 11 44 0 6 -4 15 -3 18
3 5 8 11 8 20 0 9 -8 15 -8 20 0 4 7 12 7 26 0 14 -8 19 -7 19 2 0 9 3 9 11 1
7 -7 21 -8 39 -3 16 5 31 6 33 4 3 -3 8 7 11 23 6 21 9 24 17 12 7 -12 9 -11
9 3 0 10 9 22 19 28 11 5 29 26 41 45 12 19 26 33 31 29 5 -3 9 2 9 10 0 9 5
16 10 16 6 0 10 7 10 15 0 9 6 12 15 9 11 -5 13 -2 8 12 -4 11 -3 15 5 10 11
-7 36 27 26 37 -3 3 1 4 8 4 7 -1 14 2 15 7 0 5 8 13 17 18 9 5 14 14 10 19
-3 5 -1 8 4 7 11 -4 82 69 74 76 -5 6 15 10 32 7 5 -1 3 6 -5 15 -9 12 -10 15
-1 10 7 -4 15 -1 18 8 3 9 12 16 20 16 8 0 13 3 13 8 -3 19 2 33 11 27 6 -3
10 -1 10 5 0 6 5 8 10 5 6 -4 9 -3 8 2 -2 4 7 18 20 31 12 12 20 28 16 34 -4
7 -3 8 5 4 6 -4 14 0 17 8 3 9 12 16 19 16 8 0 17 9 20 20 4 12 11 17 18 13 7
-4 6 1 -2 11 -8 9 -10 16 -5 15 21 -4 35 2 29 11 -3 6 1 10 9 10 9 0 15 6 13
13 -1 6 4 11 11 9 8 -1 11 2 7 8 -3 6 -11 8 -16 5 -5 -4 -9 0 -9 7 0 7 -13 24
-30 38 -16 14 -30 31 -30 39 0 8 -3 12 -6 8 -7 -7 -34 17 -34 31 0 5 -8 16
-17 23 -17 13 -17 13 -3 -6 14 -19 14 -19 -2 -6 -10 7 -18 19 -18 25 0 6 -13
22 -30 36 -16 14 -30 31 -30 38 0 7 -4 11 -9 7 -5 -3 -12 3 -16 14 -3 10 -23
33 -45 51 -22 18 -37 36 -34 41 3 5 0 9 -6 9 -6 0 -23 12 -38 27 -15 15 -18
20 -7 13 11 -7 1 5 -22 27 -24 22 -43 46 -43 52 0 7 -4 9 -10 6 -5 -3 -10 -2
-10 4 0 5 -20 30 -44 55 -24 24 -42 47 -38 50 3 3 -1 6 -9 6 -15 0 -49 34 -49
49 0 14 -58 53 -63 44 -6 -10 -110 -8 -126 1 -6 4 -11 3 -11 -2 0 -8 -44 -9
-87 -1 -4 1 -10 0 -13 -1 -21 -8 -40 -6 -40 3 0 8 -3 7 -9 -1 -4 -8 -12 -14
-16 -14 -4 0 -12 6 -16 14 -6 9 -11 10 -16 2 -9 -11 -52 -12 -71 0 -7 4 -12 3
-12 -3 0 -5 -9 -9 -20 -8 -11 1 -20 5 -20 10 0 6 -5 6 -12 1 -16 -11 -39 -11
-55 -1 -7 5 -13 4 -13 -1z"/>
<path d="M2524 7122 c4 -6 -1 -11 -11 -10 -10 0 -29 -3 -43 -6 -14 -3 -38 -9
-54 -11 -16 -3 -37 -10 -46 -15 -10 -5 -20 -6 -24 -3 -3 3 -6 1 -6 -6 0 -7 -4
-9 -10 -6 -5 3 -10 0 -10 -7 0 -9 -3 -9 -10 2 -7 11 -10 11 -10 2 0 -7 -4 -11
-9 -7 -6 3 -14 -3 -20 -12 -7 -13 -10 -14 -11 -4 0 10 -6 7 -19 -7 -10 -12
-26 -22 -35 -22 -9 0 -19 -7 -22 -15 -4 -8 -10 -13 -14 -10 -5 3 -15 -4 -23
-15 -7 -11 -17 -17 -20 -13 -4 3 -7 1 -7 -5 0 -7 -6 -12 -14 -12 -8 0 -17 -7
-20 -16 -3 -8 -10 -12 -16 -9 -5 3 -7 0 -4 -9 3 -9 -2 -17 -14 -20 -11 -4 -23
-14 -26 -22 -3 -8 -10 -12 -16 -9 -5 3 -7 0 -4 -8 3 -8 -2 -17 -10 -20 -9 -4
-16 -13 -16 -21 0 -7 -7 -17 -16 -20 -8 -3 -12 -10 -9 -16 3 -5 2 -10 -3 -10
-6 0 -15 -13 -21 -30 -5 -16 -15 -30 -21 -30 -6 0 -9 -4 -5 -9 3 -5 1 -12 -5
-16 -6 -4 -8 -11 -5 -16 4 -5 1 -9 -4 -9 -6 0 -10 -6 -9 -12 2 -7 -2 -12 -8
-11 -7 1 -11 -3 -11 -10 1 -40 -4 -58 -15 -51 -7 5 -8 3 -4 -5 5 -7 0 -22 -11
-34 -18 -21 -18 -21 1 -7 18 14 19 14 7 -8 -7 -13 -10 -30 -7 -38 3 -8 2 -12
-3 -9 -5 3 -12 1 -16 -5 -3 -5 0 -10 7 -10 10 0 10 -2 -1 -9 -8 -5 -11 -16 -6
-30 4 -12 2 -21 -4 -21 -6 0 -11 -5 -11 -11 0 -5 4 -7 10 -4 14 8 1 -26 -19
-49 -9 -11 -11 -16 -5 -13 7 4 18 -1 25 -10 8 -10 9 -14 2 -10 -6 4 -14 3 -18
-3 -3 -5 -1 -10 6 -10 7 0 4 -7 -7 -15 -10 -9 -13 -14 -5 -13 7 2 15 -5 16
-15 3 -15 1 -16 -12 -5 -14 11 -15 11 -6 -7 6 -11 8 -26 5 -34 -3 -8 0 -11 7
-7 6 4 11 3 11 -3 0 -5 -6 -12 -12 -15 -10 -5 -10 -7 0 -12 6 -3 12 -17 12
-30 0 -13 -6 -24 -12 -24 -9 0 -8 -3 2 -10 9 -5 13 -22 12 -44 -1 -19 2 -37 8
-41 8 -5 7 -12 -2 -23 -11 -13 -11 -14 1 -7 11 6 13 4 8 -8 -3 -9 0 -18 9 -21
8 -3 14 -9 13 -13 -4 -27 3 -63 11 -58 5 3 7 0 4 -8 -3 -8 2 -21 10 -30 12
-12 13 -17 3 -20 -9 -4 -9 -6 1 -6 7 -1 10 -5 7 -11 -3 -5 -1 -10 6 -10 9 0 9
-3 0 -14 -9 -11 -8 -14 6 -12 10 0 17 -5 15 -12 -1 -7 7 -22 18 -34 11 -12 18
-28 16 -35 -3 -7 2 -13 11 -13 9 0 14 -3 11 -6 -3 -3 5 -17 18 -31 13 -14 21
-31 17 -37 -4 -6 2 -4 12 4 14 11 17 11 11 1 -6 -9 2 -23 25 -43 19 -17 27
-27 19 -23 -8 3 -6 -1 4 -9 11 -9 26 -16 34 -16 7 0 10 -4 7 -10 -3 -5 1 -10
9 -10 9 0 16 -4 16 -9 0 -5 9 -11 21 -14 14 -4 18 -10 13 -19 -4 -7 -4 -10 1
-6 4 4 17 2 29 -4 11 -7 24 -11 29 -10 4 1 7 -2 7 -8 0 -5 7 -10 15 -10 9 0
27 -7 41 -16 13 -9 27 -14 30 -11 4 3 15 -2 25 -12 11 -10 31 -16 49 -15 16 1
30 -1 30 -6 0 -4 10 -6 23 -6 12 1 28 -2 35 -7 7 -6 12 -6 12 0 0 5 7 10 15
10 8 0 15 -3 15 -7 0 -5 38 -4 163 3 15 0 27 4 27 8 0 4 11 6 25 4 14 -1 25 2
25 7 0 5 5 6 10 3 6 -3 10 -1 10 4 0 6 11 11 25 11 14 0 25 5 25 11 0 5 4 8 9
4 5 -3 12 -1 16 5 4 6 10 8 15 5 4 -3 10 2 14 10 3 8 12 15 21 15 8 0 15 5 15
10 0 6 7 10 15 10 8 0 15 7 15 16 0 8 4 13 9 9 6 -3 15 4 21 15 6 11 15 18 21
15 5 -4 9 1 9 9 0 9 3 15 8 13 4 -1 7 2 7 6 0 5 8 13 17 18 9 5 16 15 14 22
-1 6 -1 9 1 5 3 -5 9 -8 14 -8 6 0 8 4 5 8 -2 4 4 8 14 8 14 0 16 -4 9 -13
-14 -16 -19 -63 -7 -63 5 0 6 -5 2 -12 -9 -15 -12 -88 -3 -88 3 0 6 -7 6 -15
0 -11 -4 -12 -14 -4 -19 16 -16 6 5 -18 13 -14 29 -19 67 -19 28 1 53 5 57 11
5 6 8 6 8 -2 0 -14 90 -12 90 2 0 6 3 6 8 0 10 -14 163 -14 154 0 -3 6 0 5 9
-1 15 -12 63 -13 75 -1 4 4 12 3 19 -3 16 -14 55 -1 48 16 -3 8 1 22 8 31 8 9
9 14 3 10 -7 -4 -14 0 -18 8 -3 8 0 15 7 15 8 0 6 4 -3 10 -11 7 -11 10 -2 10
7 0 10 5 7 11 -11 17 -11 99 0 99 6 0 4 4 -4 9 -11 7 -10 10 5 14 18 4 18 5
-1 6 -17 1 -18 3 -5 11 13 9 13 10 0 10 -13 0 -13 2 -1 9 12 8 12 12 2 25 -10
11 -10 16 -2 16 9 0 9 5 1 20 -8 15 -8 20 1 20 8 0 7 5 -2 17 -10 11 -10 14
-1 9 6 -4 12 -2 12 3 0 6 -6 11 -12 11 -9 0 -8 4 2 10 13 8 13 10 1 10 -11 0
-10 4 5 16 10 8 14 13 7 10 -6 -4 -14 -2 -18 4 -3 5 -3 10 2 10 10 0 9 73 -1
89 -4 6 -1 11 6 11 9 0 9 3 -2 10 -10 6 -11 10 -2 10 6 0 12 5 12 11 0 5 -4 8
-8 5 -5 -3 -9 2 -9 10 0 9 6 13 16 9 11 -3 10 0 -3 10 -14 11 -16 15 -5 15 12
0 12 2 -1 10 -13 9 -13 10 0 10 13 0 13 1 0 10 -12 8 -12 10 -1 10 11 0 11 3
0 17 -8 9 -9 14 -3 10 7 -4 14 -1 16 6 6 15 -1 39 -11 33 -4 -3 -7 4 -7 15 0
10 3 19 6 19 7 0 3 86 -5 99 -3 6 -1 11 5 11 8 0 8 5 1 17 -7 13 -5 23 7 36 9
10 12 18 7 17 -24 -5 -27 1 -9 16 10 8 14 13 8 10 -7 -3 -14 1 -18 9 -3 8 0
15 7 15 8 0 6 4 -3 10 -13 9 -13 10 0 10 12 0 12 2 2 9 -11 7 -11 11 2 24 14
13 14 16 0 21 -8 3 -12 11 -8 18 4 6 7 26 6 45 -1 20 3 33 11 33 7 0 4 5 -6
11 -18 10 -18 11 0 26 10 8 13 12 7 9 -7 -3 -14 1 -18 9 -3 8 0 15 6 15 7 0 6
5 -2 15 -10 12 -10 15 0 15 10 0 10 3 0 15 -7 8 -8 15 -3 15 5 0 10 7 10 15 0
8 -5 15 -11 15 -5 0 -2 6 9 13 14 11 15 16 5 22 -9 6 -11 4 -5 -5 5 -9 4 -11
-3 -6 -7 4 -8 15 -3 29 6 14 5 30 -1 41 -8 14 -8 17 2 11 9 -6 9 -3 1 13 -8
15 -8 21 1 24 8 3 8 9 0 25 -9 16 -9 23 1 26 8 4 8 6 -2 6 -11 1 -10 5 5 17
10 8 14 13 7 10 -6 -4 -14 -2 -18 4 -3 5 -3 10 2 10 9 0 8 77 -2 103 -5 11 -2
17 6 17 11 0 11 3 -1 10 -9 6 -11 10 -3 10 7 0 10 7 7 15 -4 10 -19 13 -55 11
-27 -1 -49 2 -49 6 0 5 -5 6 -12 2 -16 -10 -129 -11 -150 -2 -10 5 -18 3 -21
-5 -3 -9 -7 -9 -17 0 -9 8 -19 9 -31 2 -21 -11 -41 -9 -51 6 -5 6 -12 4 -18
-5 -7 -11 -12 -12 -21 -3 -9 9 -18 9 -31 2 -13 -7 -23 -7 -33 1 -9 8 -15 8
-20 0 -3 -6 -10 -8 -15 -5 -4 3 -10 -2 -14 -10 -3 -8 -1 -17 5 -21 6 -4 6 -11
-2 -20 -9 -11 -9 -14 1 -14 10 0 10 -3 0 -15 -7 -8 -8 -15 -3 -15 11 0 9 -42
-2 -59 -3 -6 -1 -11 4 -11 6 0 11 -5 11 -11 0 -5 -4 -7 -10 -4 -5 3 -10 2 -10
-4 0 -5 5 -13 10 -16 6 -3 10 -11 10 -17 0 -6 -8 -1 -19 10 -10 12 -22 18 -26
14 -5 -4 -5 1 -2 11 4 10 3 16 -1 13 -5 -3 -14 4 -22 14 -8 10 -17 17 -22 14
-4 -3 -8 0 -8 5 0 14 -37 51 -51 51 -6 0 -25 11 -41 25 -16 14 -34 23 -39 19
-5 -3 -9 0 -9 6 0 6 -4 8 -10 5 -5 -3 -10 -2 -10 4 0 6 -7 8 -15 5 -8 -4 -15
-2 -15 3 0 8 -20 13 -67 17 -13 0 -23 5 -23 10 0 4 -6 6 -14 3 -7 -3 -19 0
-26 6 -10 9 -11 9 -6 0 4 -7 2 -13 -3 -13 -6 0 -11 4 -11 9 0 5 -9 7 -21 4
-12 -4 -25 0 -30 8 -5 8 -9 9 -9 4 0 -13 -59 -13 -79 -1 -9 6 -12 5 -7 -2z
m239 -476 c15 0 27 -2 27 -6 0 -4 11 -6 25 -5 15 2 29 -3 35 -13 7 -13 9 -14
10 -3 0 10 8 7 27 -10 21 -18 24 -19 13 -4 -8 11 2 5 21 -13 19 -18 38 -30 41
-26 4 3 9 -4 13 -15 3 -12 12 -21 18 -21 7 -1 22 -17 34 -36 13 -19 18 -32 13
-29 -6 3 -10 1 -10 -4 0 -10 12 -15 30 -13 3 0 7 -13 8 -30 1 -17 6 -36 9 -42
10 -15 15 -37 14 -64 -1 -16 3 -21 12 -16 8 5 7 2 -2 -9 -9 -12 -10 -17 -2
-17 7 0 9 -5 6 -10 -4 -6 -12 -7 -18 -4 -8 5 -8 3 1 -7 14 -16 16 -43 2 -34
-6 4 -7 -2 -2 -17 5 -13 7 -34 5 -48 -7 -54 -10 -75 -11 -83 -1 -5 -8 -5 -14
-1 -9 5 -9 3 1 -9 11 -14 11 -18 -3 -23 -9 -3 -13 -10 -10 -16 3 -5 -6 -23
-22 -39 -15 -16 -24 -29 -20 -29 5 0 -3 -9 -18 -21 -14 -11 -24 -24 -21 -29 5
-7 -32 -24 -48 -21 -5 1 -5 -3 -2 -9 4 -7 -2 -14 -14 -17 -12 -3 -21 -10 -21
-15 0 -6 -7 -8 -15 -4 -8 3 -15 1 -15 -5 0 -6 -4 -7 -10 -4 -5 3 -10 2 -10 -4
0 -6 -7 -8 -15 -5 -8 4 -15 1 -15 -6 0 -9 -4 -9 -17 1 -14 12 -16 12 -8 0 6
-11 4 -13 -8 -8 -9 3 -19 2 -23 -4 -4 -6 -11 -6 -20 2 -11 9 -14 9 -14 0 0 -9
-5 -9 -21 0 -16 8 -20 8 -14 -1 6 -9 3 -9 -12 -1 -11 5 -35 13 -54 16 -19 3
-38 10 -43 16 -6 5 -18 9 -28 9 -10 0 -18 5 -18 12 0 6 -3 9 -6 5 -9 -8 -33
16 -26 27 3 5 0 6 -6 2 -6 -3 -13 -2 -17 4 -4 6 -11 7 -17 4 -7 -4 -8 -2 -4 4
4 7 1 12 -10 12 -13 0 -14 3 -5 14 10 11 8 16 -8 21 -12 3 -21 13 -21 21 0 8
-7 17 -15 20 -8 4 -13 10 -10 14 8 12 -6 41 -16 34 -5 -3 -9 -2 -8 3 1 4 0 10
-1 13 -8 22 -7 39 3 33 7 -4 6 1 -2 11 -8 9 -15 28 -16 41 0 20 2 22 15 12 8
-6 6 -1 -4 11 -24 27 -31 68 -9 50 11 -8 12 -7 7 6 -3 9 -11 16 -18 16 -6 0
-4 5 4 10 10 6 11 10 3 10 -7 0 -13 5 -13 11 0 5 4 8 8 5 5 -3 8 8 7 24 -1 17
3 30 8 30 5 0 4 7 -3 15 -8 10 -9 15 -2 15 6 0 9 7 6 15 -4 8 -1 15 6 15 6 0
8 5 5 10 -3 6 -1 10 5 10 6 0 9 4 6 9 -9 14 5 42 17 34 5 -3 7 -1 4 5 -9 14 3
43 14 36 5 -3 9 4 9 15 0 12 5 21 11 21 5 0 8 4 4 9 -3 5 0 13 6 17 8 4 9 3 5
-4 -4 -7 -2 -12 3 -12 6 0 11 7 11 15 0 8 4 15 9 15 6 0 22 11 37 25 15 14 33
24 40 21 6 -2 21 4 33 15 14 13 21 15 21 7 0 -10 2 -10 9 1 6 8 19 12 35 9 15
-3 29 -1 32 4 3 4 10 6 15 3 5 -4 9 -1 9 5 0 7 7 8 18 3 9 -5 29 -8 45 -7z"/>
<path d="M2365 6060 c3 -5 8 -10 11 -10 2 0 4 5 4 10 0 6 -5 10 -11 10 -5 0
-7 -4 -4 -10z"/>
<path d="M4742 7125 c4 -7 -21 -11 -70 -12 -116 -1 -134 -2 -129 -10 3 -5 -15
-7 -39 -6 -30 1 -42 -2 -38 -9 4 -7 2 -8 -5 -4 -6 4 -19 2 -28 -6 -14 -11 -15
-11 -9 0 6 10 0 9 -23 -2 -17 -9 -34 -15 -38 -14 -4 1 -24 -6 -43 -17 -19 -11
-39 -19 -43 -20 -4 0 -11 -6 -16 -13 -5 -8 -10 -13 -12 -12 -8 3 -44 -14 -57
-27 -8 -7 -18 -11 -23 -7 -5 3 -8 0 -7 -7 2 -7 -7 -15 -20 -18 -13 -3 -22 -9
-20 -12 2 -3 -14 -20 -34 -38 -20 -18 -40 -41 -43 -51 -4 -13 -12 -17 -22 -13
-12 5 -15 2 -10 -10 4 -11 2 -14 -9 -10 -10 4 -12 0 -7 -13 5 -13 3 -15 -8 -9
-11 7 -11 5 1 -10 9 -11 10 -16 3 -11 -8 4 -13 2 -13 -4 0 -6 -4 -8 -10 -5 -6
3 -7 -1 -4 -9 3 -9 1 -16 -6 -16 -6 0 -8 -4 -5 -10 3 -5 1 -10 -5 -10 -10 0
-35 -48 -32 -63 1 -4 -5 -10 -13 -13 -8 -3 -13 -10 -10 -14 7 -12 -16 -70 -28
-70 -7 0 -7 -4 1 -12 14 -14 16 -32 3 -24 -12 8 -18 -12 -17 -55 1 -23 -3 -35
-10 -32 -6 2 -11 -3 -11 -11 0 -8 3 -13 7 -11 4 2 7 -2 7 -10 0 -8 -5 -11 -10
-8 -6 3 -8 -9 -5 -31 2 -21 0 -36 -7 -36 -5 0 -3 -5 5 -10 13 -9 13 -10 0 -10
-13 0 -13 -1 0 -10 13 -9 13 -10 0 -10 -13 0 -13 -1 0 -10 8 -5 10 -10 5 -10
-6 0 -11 -9 -12 -20 -1 -12 3 -18 9 -14 6 4 6 -2 -1 -15 -9 -16 -9 -21 1 -21
9 0 9 -3 -2 -10 -13 -9 -13 -10 0 -10 13 0 13 -1 0 -10 -10 -6 -11 -10 -2 -10
6 0 12 -5 12 -11 0 -5 -4 -8 -9 -5 -5 4 -7 -8 -4 -26 3 -18 10 -36 15 -39 6
-4 5 -9 -3 -12 -12 -5 -12 -6 0 -6 11 -1 11 -4 0 -18 -8 -9 -9 -14 -3 -10 7 4
14 0 18 -8 3 -8 0 -15 -7 -15 -8 0 -9 -3 -1 -8 6 -4 10 -17 9 -29 -1 -13 3
-23 8 -23 5 0 6 -7 3 -15 -3 -9 1 -18 9 -21 8 -4 15 -10 15 -16 0 -5 -4 -7 -9
-4 -18 11 -5 -24 14 -37 10 -8 15 -19 11 -25 -4 -7 -2 -12 4 -12 7 0 10 -6 7
-14 -3 -8 1 -17 9 -20 8 -3 13 -9 12 -13 -4 -14 13 -53 23 -53 6 0 7 5 3 12
-4 7 -3 8 4 4 6 -4 9 -13 5 -21 -3 -8 0 -15 6 -15 6 0 10 -3 8 -8 -1 -4 8 -18
20 -31 12 -13 19 -29 16 -34 -4 -7 1 -8 12 -3 16 6 16 4 4 -11 -8 -9 -9 -14
-3 -10 14 8 60 -31 56 -47 -2 -6 -1 -8 3 -4 4 4 18 -4 31 -17 13 -13 33 -26
44 -30 11 -4 17 -11 14 -17 -4 -6 -3 -8 3 -5 5 4 19 -2 30 -13 12 -10 24 -16
27 -13 3 4 6 1 6 -6 0 -7 4 -10 9 -6 5 3 15 -1 23 -8 7 -8 19 -12 26 -9 6 2
12 -1 12 -8 0 -6 4 -9 9 -6 5 4 12 0 14 -6 4 -10 6 -10 6 0 1 10 5 9 17 -3 9
-9 23 -14 30 -11 8 3 14 2 14 -3 0 -10 83 -27 173 -34 20 -2 40 -7 43 -10 4
-3 15 -2 25 4 11 5 19 6 19 1 0 -4 9 -8 20 -9 11 -1 20 3 20 8 0 6 6 7 17 1 9
-5 28 -6 43 -2 15 4 33 4 41 -1 8 -4 19 -3 26 3 7 6 33 11 57 12 24 0 42 4 39
9 -2 4 2 7 9 8 22 1 42 6 73 20 17 7 36 11 43 10 6 -1 12 3 12 9 0 7 8 9 21 5
15 -5 19 -4 15 4 -4 6 0 11 8 11 9 0 16 5 16 10 0 6 6 10 13 10 7 0 19 6 26
13 6 6 17 12 24 12 7 1 11 7 9 14 -1 7 2 10 7 7 13 -8 42 4 35 15 -3 5 -1 9 4
9 4 0 18 9 30 20 12 12 22 19 22 16 0 -3 10 5 23 17 13 12 22 25 20 30 -4 7
13 11 31 8 5 -1 4 4 -3 13 -8 10 -9 16 -1 21 5 3 10 4 10 1 0 -15 40 37 46 59
3 14 11 29 18 33 6 4 17 18 24 31 11 19 11 22 0 16 -7 -3 -5 0 4 8 10 8 15 17
11 20 -3 4 -1 7 7 7 10 0 10 3 1 14 -9 11 -9 16 0 22 8 5 9 3 4 -6 -5 -9 -4
-11 3 -6 7 4 12 16 12 26 0 10 5 22 10 25 6 3 10 12 10 18 0 7 -4 6 -10 -3 -6
-9 -10 -10 -10 -3 0 6 -9 10 -20 8 -11 -2 -22 0 -25 4 -5 9 -60 5 -75 -4 -5
-3 -11 -1 -15 5 -4 6 -12 7 -18 3 -18 -11 -61 -10 -69 2 -6 7 -10 7 -15 0 -7
-10 -29 -12 -43 -6 -14 7 -50 7 -50 0 0 -4 -10 -5 -22 -3 -27 6 -33 7 -70 1
-16 -2 -28 0 -28 6 0 5 -6 4 -14 -2 -10 -9 -16 -9 -21 -1 -5 8 -11 7 -22 -2
-19 -15 -23 -15 -34 4 -7 10 -9 10 -9 1 0 -7 -6 -13 -14 -13 -7 0 -20 -8 -27
-17 -13 -17 -13 -17 6 -3 19 14 19 14 6 -3 -8 -10 -20 -16 -27 -13 -8 3 -11 0
-8 -8 3 -8 0 -17 -7 -22 -8 -5 -10 -3 -5 7 5 9 3 8 -6 -2 -14 -16 -48 -33 -60
-31 -5 1 -8 -3 -8 -9 0 -7 -12 -10 -30 -7 -16 3 -30 1 -30 -4 0 -5 -4 -7 -9
-3 -5 3 -13 0 -16 -5 -5 -8 -14 -5 -28 7 -11 10 -17 12 -13 6 9 -16 -45 -14
-56 2 -5 6 -8 5 -8 -3 0 -8 -5 -10 -12 -5 -14 8 -24 11 -53 15 -23 3 -32 10
-81 55 -20 18 -43 37 -52 43 -13 7 -13 9 -3 10 9 0 6 7 -9 20 -15 13 -21 26
-17 40 4 15 0 23 -15 29 -18 7 -19 8 -5 14 10 4 17 12 17 20 0 10 11 12 50 7
33 -4 50 -3 50 4 0 6 5 4 10 -4 7 -11 10 -11 10 -2 0 10 5 10 20 2 11 -6 20
-7 20 -2 0 4 9 8 19 8 15 0 17 -3 9 -13 -8 -10 -7 -12 6 -7 9 3 16 10 16 15 0
6 8 6 18 0 13 -7 23 -6 32 2 10 9 11 9 6 0 -4 -7 -2 -13 3 -13 6 0 11 5 11 10
0 7 6 7 20 0 11 -6 20 -7 20 -2 0 4 9 8 19 8 15 0 17 -3 9 -13 -8 -10 -7 -12
6 -7 9 3 16 10 16 15 0 6 10 5 21 -2 16 -8 23 -8 29 1 6 9 9 9 13 -1 4 -11 6
-11 6 -1 1 10 6 10 21 2 15 -8 20 -8 20 1 0 7 8 5 20 -6 18 -16 20 -16 26 -2
5 14 10 15 27 5 16 -8 22 -8 25 1 2 6 8 11 13 11 6 0 8 -3 6 -7 -3 -5 6 -8 19
-8 13 0 24 3 24 7 0 4 14 3 30 -2 19 -5 30 -5 30 1 0 6 5 7 12 3 7 -4 32 -7
56 -5 34 2 43 0 37 -11 -3 -7 -1 -6 7 3 9 11 21 13 41 8 17 -4 27 -3 27 3 0 6
6 5 15 -2 12 -10 15 -10 15 1 0 11 2 11 10 -1 6 -9 10 -11 10 -3 0 7 7 10 15
7 27 -11 135 -9 135 1 0 6 5 3 10 -5 5 -8 10 -10 10 -5 0 6 17 10 37 9 48 -3
56 2 42 28 -6 12 -7 18 -1 14 5 -3 12 1 16 9 3 8 0 17 -6 21 -7 5 -8 2 -3 -6
5 -9 4 -11 -4 -6 -9 6 -9 11 0 22 6 8 8 14 4 14 -4 0 -2 7 6 16 10 13 10 17
-2 25 -9 6 -10 12 -4 17 13 10 18 35 5 27 -5 -3 -10 1 -10 10 0 9 4 14 8 11 5
-3 9 1 9 9 0 8 -4 12 -9 9 -13 -8 -9 20 5 35 10 11 9 12 -2 6 -10 -6 -12 3
-10 43 2 27 1 48 -2 46 -4 -2 -10 3 -13 12 -4 10 -2 13 7 8 9 -5 9 -4 0 7 -16
16 -17 33 -1 23 7 -5 8 -3 4 5 -5 7 -15 10 -25 7 -12 -5 -11 -2 3 9 11 8 14
15 7 15 -7 0 -9 5 -6 10 3 6 1 10 -4 10 -6 0 -11 11 -11 25 0 14 -4 33 -9 43
-5 9 -15 31 -22 47 -8 17 -20 34 -26 38 -7 4 -13 13 -13 20 0 7 4 6 10 -3 7
-10 10 -11 10 -2 0 7 -7 15 -16 19 -8 3 -13 12 -10 19 3 8 -1 14 -10 14 -8 0
-12 5 -9 10 3 6 1 10 -5 10 -7 0 -10 7 -6 15 5 14 -6 20 -28 16 -5 -1 -3 5 4
14 7 9 9 15 4 13 -11 -4 -54 38 -54 52 0 6 -6 10 -14 10 -8 0 -18 9 -21 20 -4
11 -10 18 -14 15 -4 -2 -17 6 -29 18 -32 34 -49 46 -56 40 -3 -4 -6 -1 -6 6 0
7 -4 9 -10 6 -5 -3 -10 -2 -10 3 0 9 -75 49 -102 54 -7 2 -15 6 -18 9 -7 8
-136 49 -155 49 -8 0 -15 5 -15 11 0 8 -5 8 -15 -1 -8 -7 -15 -8 -15 -3 0 5
-13 9 -30 8 -16 -1 -30 2 -30 6 0 4 -9 5 -20 2 -11 -3 -28 1 -37 8 -9 8 -14 9
-11 4z m8 -469 c14 1 30 -3 37 -8 7 -5 17 -7 23 -3 5 3 10 1 10 -4 0 -6 7 -11
15 -11 8 0 15 -5 15 -11 0 -5 4 -8 9 -5 5 3 20 -3 33 -14 14 -11 28 -17 32
-15 3 3 4 2 1 -1 -2 -4 10 -19 27 -34 20 -18 28 -32 23 -40 -5 -9 -4 -11 3 -6
8 5 12 0 12 -13 0 -12 4 -21 8 -21 4 0 13 -13 19 -30 6 -16 7 -30 2 -30 -4 0
-6 -6 -3 -13 3 -9 -8 -12 -38 -12 -24 0 -48 -3 -55 -8 -6 -4 -14 -4 -17 1 -3
5 -53 8 -111 6 -74 -1 -105 1 -105 9 0 8 -3 8 -8 2 -10 -15 -173 -16 -165 -1
4 6 -3 3 -14 -7 -11 -9 -23 -14 -27 -10 -11 12 -50 10 -58 -2 -5 -6 -8 -5 -8
3 0 8 -5 10 -12 6 -8 -5 -9 -1 -4 12 6 15 5 17 -5 7 -7 -7 -17 -13 -22 -13 -5
0 -1 7 8 16 12 13 13 19 4 30 -10 12 -9 13 5 8 9 -4 16 -3 15 2 -5 22 53 119
64 107 7 -6 11 12 8 30 -1 5 3 6 8 3 5 -4 23 5 39 19 16 13 32 22 36 18 3 -3
6 -1 6 6 0 7 4 10 9 6 5 -3 12 -1 16 5 4 6 11 8 16 5 5 -4 9 -1 9 4 0 6 5 11
11 11 5 0 7 -6 3 -12 -6 -10 -5 -10 7 -1 9 7 25 11 36 9 11 -2 26 0 34 4 7 5
16 6 19 2 3 -4 16 -7 30 -6z"/>
<path d="M6386 7121 c-4 -5 -14 -8 -24 -6 -9 1 -25 -2 -34 -7 -13 -6 -18 -5
-18 4 0 8 -3 9 -8 3 -4 -5 -20 -11 -37 -12 -85 -6 -105 -8 -105 -13 0 -3 -12
-5 -27 -5 -16 1 -35 -5 -44 -12 -9 -8 -20 -13 -25 -11 -5 1 -23 -5 -40 -15
-17 -9 -34 -13 -38 -10 -3 4 -6 1 -6 -6 0 -7 -4 -10 -9 -6 -6 3 -13 -1 -18 -9
-8 -15 -11 -16 -39 -16 -8 0 -13 -4 -9 -9 3 -5 -4 -12 -15 -16 -11 -3 -20 -11
-20 -17 0 -5 -6 -8 -13 -5 -13 5 -39 -17 -30 -27 3 -3 -6 -10 -21 -15 -14 -6
-26 -13 -26 -16 0 -4 5 -3 12 1 7 4 8 3 4 -4 -4 -7 -14 -12 -22 -12 -8 0 -12
-5 -9 -11 4 -6 -1 -19 -11 -29 -39 -39 -44 -48 -31 -53 7 -3 4 -6 -6 -6 -11
-1 -15 -6 -11 -13 4 -6 -1 -17 -11 -25 -13 -9 -14 -13 -5 -13 9 0 8 -5 -6 -16
-10 -8 -13 -13 -6 -9 15 8 16 -11 1 -21 -6 -3 -9 -17 -6 -30 2 -14 1 -27 -3
-29 -9 -6 -5 -88 4 -104 4 -6 3 -11 -2 -11 -13 0 -7 -43 6 -48 9 -3 9 -9 1
-24 -10 -18 -9 -20 6 -14 13 4 16 2 11 -9 -3 -8 -1 -15 4 -15 5 0 7 -7 4 -15
-4 -8 -1 -15 6 -15 6 0 9 -4 6 -8 -3 -5 4 -14 14 -22 10 -8 17 -17 14 -22 -3
-4 0 -8 6 -8 6 0 8 -5 4 -12 -5 -8 -2 -9 10 -5 14 6 17 3 12 -10 -4 -10 -4
-14 0 -11 10 11 45 -12 38 -24 -5 -8 -1 -9 10 -5 13 5 17 3 13 -7 -4 -10 -1
-13 9 -9 7 3 14 0 14 -6 0 -6 5 -11 12 -11 25 0 88 -36 88 -50 0 -9 3 -11 8
-5 10 14 36 12 54 -3 8 -6 18 -9 21 -5 4 3 7 1 7 -5 0 -6 9 -9 20 -7 11 2 22
-1 25 -6 4 -5 11 -7 16 -4 5 4 9 2 9 -4 0 -5 11 -8 25 -6 14 1 28 -2 31 -7 3
-5 12 -7 20 -4 8 3 14 1 14 -3 0 -5 10 -7 22 -3 14 3 19 1 14 -6 -4 -8 -2 -10
7 -6 8 3 18 0 22 -6 5 -8 11 -8 21 1 11 9 14 9 14 -1 0 -8 3 -10 7 -7 3 4 14
0 24 -9 12 -11 19 -12 24 -4 4 7 11 8 18 1 7 -5 15 -9 20 -9 21 1 83 -15 93
-23 7 -5 16 -9 20 -7 15 4 54 -13 54 -23 0 -6 4 -8 9 -5 4 3 19 -3 31 -14 13
-11 19 -20 14 -20 -5 0 0 -7 10 -15 14 -11 16 -15 5 -15 -12 0 -12 -2 1 -10
13 -9 13 -11 0 -20 -12 -8 -12 -10 -1 -10 11 0 11 -3 0 -16 -10 -13 -10 -17 2
-25 12 -7 11 -9 -3 -9 -9 0 -21 -6 -25 -13 -10 -16 -73 -61 -73 -52 0 4 -8 -1
-17 -11 -10 -10 -19 -12 -21 -6 -2 8 -11 8 -29 1 -13 -5 -29 -7 -34 -3 -5 3
-9 0 -9 -7 0 -7 -4 -8 -12 -2 -7 5 -23 8 -35 7 -13 0 -23 3 -23 9 0 5 -7 4
-15 -3 -11 -9 -15 -9 -15 -1 0 7 -4 10 -9 6 -5 -3 -17 2 -25 11 -9 8 -16 13
-16 10 0 -3 -11 6 -25 20 -14 14 -25 34 -25 44 0 11 -4 20 -10 20 -5 0 -10 9
-10 21 0 11 -4 18 -8 15 -4 -2 -14 -1 -21 4 -8 4 -26 4 -42 0 -19 -6 -29 -4
-33 3 -2 7 -5 8 -5 1 -1 -6 -21 -8 -56 -4 -31 3 -55 2 -55 -3 0 -5 -8 -3 -17
4 -11 10 -14 10 -9 2 8 -15 -3 -17 -23 -4 -7 5 -26 5 -42 1 -19 -6 -29 -4 -33
3 -3 8 -5 8 -5 -1 -1 -10 -6 -10 -21 -2 -15 8 -20 8 -20 -2 0 -9 -3 -9 -10 2
-5 8 -10 11 -10 5 0 -5 -19 -10 -42 -10 -24 0 -46 5 -50 10 -5 6 -8 5 -8 -3 0
-9 -5 -10 -17 -3 -16 8 -18 4 -18 -34 0 -24 3 -41 6 -39 4 2 10 -3 13 -12 3
-8 2 -12 -4 -9 -6 3 -10 -1 -10 -10 0 -10 5 -13 13 -9 7 5 6 0 -3 -11 -9 -11
-10 -16 -2 -11 8 5 12 -1 12 -19 0 -15 4 -24 10 -20 6 3 10 -2 10 -12 0 -11 6
-25 13 -32 6 -8 7 -11 1 -8 -6 3 -11 0 -11 -7 0 -8 7 -12 15 -8 10 3 13 1 8
-6 -4 -6 2 -19 14 -29 11 -10 20 -23 20 -30 0 -7 5 -13 11 -13 5 0 8 -4 4 -9
-3 -6 4 -15 15 -21 11 -6 17 -16 14 -22 -4 -7 -3 -8 4 -4 7 4 12 3 12 -3 0 -5
9 -13 20 -16 11 -3 20 -14 20 -23 0 -15 2 -15 10 -2 8 13 10 12 10 -3 0 -10 5
-15 10 -12 6 3 10 2 10 -3 0 -9 37 -25 53 -23 4 1 7 -3 7 -8 0 -10 27 -21 44
-20 5 0 13 -6 18 -14 5 -10 16 -13 30 -9 16 4 19 2 13 -8 -5 -8 -4 -11 3 -6 6
4 27 0 47 -8 20 -9 33 -11 29 -5 -4 8 -1 8 13 0 11 -6 23 -8 26 -4 4 3 13 0
22 -7 8 -7 21 -10 29 -7 8 3 17 3 20 -1 11 -10 38 -12 161 -11 145 1 175 2
175 9 0 3 8 6 18 7 55 5 112 17 112 23 0 7 56 22 63 17 2 -1 11 6 21 15 9 10
24 14 33 11 11 -4 14 -2 9 5 -4 7 3 14 19 18 14 3 25 11 25 17 0 6 3 7 7 4 3
-4 12 1 20 11 9 10 12 11 7 2 -4 -8 4 -4 18 10 13 14 23 28 20 33 -2 4 0 6 5
5 4 -2 19 5 33 15 13 9 21 17 17 17 -5 0 3 11 17 23 14 13 23 27 19 30 -3 4 2
7 13 8 11 0 14 3 6 6 -10 4 -9 8 4 18 10 7 19 23 21 36 2 13 8 26 13 27 6 2 8
8 4 13 -3 5 0 9 7 9 7 0 9 3 6 7 -4 3 -1 13 6 21 9 13 9 14 0 8 -9 -5 -11 -2
-7 8 3 9 11 13 16 10 6 -4 4 4 -2 17 -11 19 -10 24 6 36 17 12 17 13 -2 14
-11 0 -14 3 -6 6 10 4 10 8 0 21 -11 13 -11 14 1 8 10 -7 12 -3 6 14 -5 16 -4
20 5 15 7 -4 4 5 -6 21 -11 15 -13 25 -7 21 15 -9 7 18 -11 42 -9 12 -7 13 8
7 19 -6 19 -6 3 12 -9 10 -17 26 -17 34 0 9 -6 19 -12 21 -10 4 -9 8 2 17 13
10 13 11 -1 7 -9 -3 -21 4 -28 15 -10 16 -10 19 1 13 7 -3 4 1 -7 10 -11 9
-19 21 -18 26 2 5 -4 9 -13 9 -8 0 -12 5 -9 10 3 6 -1 10 -9 10 -8 0 -19 7
-24 16 -5 9 -13 17 -18 17 -5 1 -8 5 -7 10 3 7 -12 11 -29 8 -5 0 -8 4 -8 10
0 5 -4 8 -9 5 -5 -3 -12 1 -15 10 -3 8 -10 12 -16 9 -5 -3 -10 -1 -10 4 0 6
-9 11 -19 11 -11 0 -23 5 -27 11 -3 6 -14 9 -23 6 -9 -2 -22 2 -29 9 -7 7 -20
10 -29 7 -12 -5 -14 -3 -8 7 5 9 4 11 -3 6 -7 -4 -18 -4 -24 1 -7 4 -22 9 -33
10 -10 2 -23 9 -27 16 -6 9 -8 8 -8 -2 0 -12 -3 -12 -12 -3 -7 7 -20 12 -30
12 -10 0 -18 5 -18 11 0 8 -4 9 -13 0 -8 -6 -17 -8 -21 -4 -3 4 -13 8 -21 10
-35 7 -41 9 -54 17 -11 7 -12 6 -6 -5 8 -12 6 -12 -8 0 -9 7 -17 10 -17 6 0
-4 -6 -2 -14 4 -8 6 -18 11 -22 9 -17 -4 -94 14 -94 22 0 5 -9 7 -20 5 -13 -2
-23 2 -27 11 -5 13 -7 13 -14 2 -7 -10 -9 -11 -9 0 0 7 -4 11 -9 7 -5 -3 -16
1 -24 9 -8 8 -17 12 -21 9 -3 -4 -6 1 -6 11 0 9 -4 14 -10 11 -10 -6 -15 13
-12 50 2 16 0 17 -8 5 -8 -12 -10 -11 -10 8 0 12 4 22 9 22 5 0 12 7 15 16 3
8 2 12 -3 9 -5 -3 -13 0 -17 7 -4 7 -4 10 0 6 4 -3 16 1 26 10 37 33 46 39 63
36 10 -1 14 2 10 9 -4 6 0 8 10 4 10 -3 17 -2 17 3 0 5 9 7 21 5 11 -2 31 0
45 5 16 6 24 6 24 -1 0 -6 5 -7 10 -4 6 4 18 1 27 -7 12 -9 15 -9 9 0 -8 13
15 17 28 5 4 -5 11 -8 14 -9 27 -3 62 -18 62 -26 0 -5 4 -7 9 -4 10 6 35 -20
44 -47 5 -13 3 -16 -6 -11 -9 6 -9 5 0 -8 7 -8 9 -19 5 -23 -4 -5 -1 -4 7 0
11 6 13 4 8 -9 -4 -11 -3 -15 4 -10 6 4 15 0 20 -7 5 -8 9 -9 9 -4 0 11 90 12
107 2 7 -4 14 -4 17 1 6 9 87 9 103 -1 6 -4 14 -4 16 0 6 9 89 9 104 0 6 -4
13 -3 17 0 12 13 48 14 40 1 -5 -7 -3 -8 7 -2 18 12 31 12 45 2 7 -5 18 -3 27
7 12 11 17 12 20 2 3 -6 5 9 4 35 -1 25 -5 44 -9 41 -5 -2 -7 7 -4 21 3 15 0
26 -6 26 -6 0 -6 6 2 15 11 13 10 14 -4 9 -11 -4 -16 -1 -16 11 0 10 5 13 12
9 7 -4 8 -3 4 4 -4 7 -14 12 -23 12 -13 0 -13 3 -3 15 11 13 7 19 -11 17 -4
-1 -6 6 -5 16 0 9 -4 16 -10 15 -8 -1 -10 6 -6 19 4 16 2 19 -8 13 -10 -6 -12
-4 -7 9 4 10 3 15 -3 11 -5 -3 -16 7 -24 22 -8 15 -28 39 -45 53 -17 14 -43
35 -58 47 -16 13 -32 23 -36 23 -5 0 -5 6 -1 13 4 6 4 9 0 5 -4 -3 -19 0 -33
7 -15 8 -30 12 -35 9 -4 -3 -8 -1 -8 4 0 6 -25 18 -55 27 -30 10 -52 22 -49
26 3 5 -6 5 -20 -1 -16 -6 -27 -6 -31 0 -4 6 -15 10 -25 10 -10 0 -21 6 -23
13 -4 9 -6 9 -6 -1 -1 -7 -6 -10 -12 -6 -14 8 -79 16 -146 17 -28 0 -50 4 -47
9 3 4 3 8 0 8 -3 0 -7 -4 -10 -9z"/>
<path d="M7993 7118 c-4 -7 -19 -14 -33 -14 -14 -1 -37 -4 -52 -7 -16 -3 -29
-1 -32 6 -2 7 -5 5 -5 -5 -1 -10 -8 -15 -18 -13 -10 1 -23 -2 -29 -7 -7 -5
-23 -11 -35 -13 -13 -3 -25 -9 -27 -15 -2 -6 -8 -7 -13 -4 -6 3 -16 0 -24 -6
-8 -7 -15 -9 -15 -4 0 4 -6 0 -13 -11 -8 -10 -19 -15 -25 -11 -7 4 -12 2 -12
-4 0 -6 -4 -8 -10 -5 -5 3 -10 -1 -10 -9 0 -9 -3 -15 -7 -15 -21 3 -33 -2 -27
-12 4 -7 1 -10 -7 -7 -7 2 -23 -5 -36 -16 -40 -38 -56 -51 -77 -63 -15 -9 -17
-12 -6 -13 12 0 11 -3 -3 -11 -9 -5 -22 -7 -29 -3 -6 4 -8 3 -5 -4 9 -14 -3
-43 -14 -36 -8 5 -13 -10 -10 -30 1 -5 -5 -6 -13 -3 -10 4 -13 1 -10 -7 3 -7
-2 -19 -11 -26 -8 -7 -15 -18 -15 -26 0 -7 -6 -17 -14 -21 -8 -4 -16 -12 -18
-18 -2 -5 -7 -9 -11 -7 -4 1 -3 -6 2 -16 8 -14 5 -22 -14 -36 -20 -15 -23 -22
-14 -38 9 -16 8 -19 -2 -13 -9 6 -11 2 -7 -13 4 -12 2 -20 -2 -17 -5 3 -11 1
-15 -5 -3 -5 -1 -10 4 -10 6 0 11 -5 11 -11 0 -5 -5 -7 -12 -3 -8 5 -9 2 -5
-9 3 -10 2 -17 -2 -17 -5 0 -7 -10 -4 -22 4 -19 3 -21 -7 -8 -10 13 -11 13 -6
-2 3 -10 9 -26 12 -35 4 -14 4 -15 -4 -4 -7 10 -11 2 -14 -28 -2 -23 0 -45 5
-50 5 -5 3 -12 -4 -16 -8 -6 -10 -4 -4 5 6 9 4 11 -4 6 -9 -6 -8 -13 5 -27 16
-17 16 -19 0 -25 -14 -5 -15 -9 -4 -15 11 -7 10 -11 -2 -20 -11 -8 -12 -12 -2
-16 6 -2 12 -9 12 -14 0 -6 -4 -8 -8 -5 -4 2 -8 -4 -8 -14 0 -10 3 -17 7 -14
4 2 9 -3 12 -11 4 -9 1 -12 -7 -9 -7 3 -13 -2 -13 -10 0 -8 5 -12 10 -9 6 4 8
0 4 -10 -3 -9 -3 -18 1 -21 4 -2 7 -25 6 -50 0 -25 4 -46 9 -46 5 0 3 -8 -4
-17 -12 -14 -12 -16 0 -8 11 6 13 4 8 -8 -3 -10 -2 -17 2 -17 5 0 7 -9 4 -20
-3 -11 -1 -20 5 -20 5 0 13 -7 16 -16 6 -15 4 -15 -11 -3 -17 13 -17 12 -2 -6
9 -11 15 -30 14 -42 -1 -13 1 -21 3 -18 11 11 32 -19 32 -47 0 -17 4 -27 10
-23 6 3 10 0 10 -8 0 -23 26 -67 35 -59 4 4 6 -3 3 -15 -4 -16 -2 -20 8 -16 8
3 14 -1 14 -11 0 -9 5 -16 11 -16 5 0 7 -4 4 -10 -3 -5 2 -10 11 -10 10 0 15
-3 11 -6 -3 -3 15 -27 41 -52 26 -25 46 -49 45 -54 -2 -4 0 -7 5 -7 19 3 31
-3 55 -27 14 -14 30 -23 35 -20 5 3 16 -4 26 -15 9 -12 24 -18 32 -15 8 3 17
-1 20 -9 4 -8 10 -12 15 -9 5 3 9 0 9 -6 0 -6 4 -9 8 -6 5 3 22 -2 38 -10 16
-9 30 -15 32 -15 16 5 42 -1 37 -9 -3 -5 0 -7 8 -4 8 3 18 0 22 -6 5 -8 11 -8
21 1 9 7 14 8 14 1 0 -6 11 -9 25 -7 14 1 28 -1 30 -5 3 -5 18 -7 35 -6 16 1
30 -2 30 -6 0 -5 9 -4 20 2 11 6 20 7 20 2 0 -4 26 -7 58 -5 31 2 78 5 104 6
27 1 48 5 48 8 0 4 15 6 34 5 19 -1 32 2 30 6 -5 8 -1 9 34 12 11 0 27 8 37
16 11 9 16 10 11 3 -4 -7 -2 -13 3 -13 6 0 11 5 11 11 0 5 5 7 10 4 6 -3 10
-1 10 4 0 6 3 10 8 9 13 -4 91 35 86 44 -3 4 2 9 10 9 9 1 21 2 27 3 6 0 16 9
23 18 7 10 16 15 19 11 4 -3 7 -1 7 6 0 7 4 10 9 7 5 -3 11 1 15 9 3 8 13 15
21 15 9 0 13 5 10 10 -3 6 -2 10 3 10 14 0 72 56 65 63 -6 7 12 11 30 8 5 -1
6 3 2 9 -8 13 14 42 26 34 5 -3 9 -2 8 3 -4 26 2 45 15 40 9 -4 13 3 12 21 0
15 5 26 11 25 11 -2 40 63 35 80 -1 4 3 7 10 7 6 0 8 3 5 7 -4 3 -1 13 6 21 9
13 9 14 0 8 -7 -4 -13 -2 -13 3 0 6 7 11 15 11 9 0 12 6 9 15 -4 8 -10 13 -14
10 -5 -3 -11 -1 -15 5 -4 7 -12 7 -26 0 -14 -8 -19 -7 -19 2 0 8 -3 9 -8 3 -7
-11 -42 -12 -59 -2 -5 3 -15 2 -23 -3 -9 -5 -19 -5 -27 2 -8 6 -13 7 -13 1 0
-11 -73 -9 -90 2 -6 3 -10 2 -10 -2 0 -12 -38 -14 -46 -2 -4 6 -10 7 -17 0
-18 -14 -29 -14 -38 1 -6 8 -12 9 -16 3 -11 -15 -31 -17 -52 -6 -12 7 -22 6
-29 -1 -9 -9 -12 -9 -12 0 0 10 -5 10 -20 2 -14 -7 -20 -7 -20 0 0 6 -20 -11
-45 -37 -25 -25 -45 -42 -45 -37 0 5 -4 4 -8 -3 -11 -18 -73 -41 -104 -39 -16
1 -28 -1 -28 -5 0 -4 -27 -7 -60 -6 -33 1 -60 4 -60 7 0 3 -14 6 -32 6 -18 1
-34 6 -36 12 -2 6 -10 8 -18 5 -9 -3 -14 1 -14 12 0 11 -5 15 -15 12 -8 -4
-17 -1 -21 5 -5 7 -2 8 6 3 8 -5 11 -4 6 3 -4 6 -13 9 -20 6 -8 -3 -16 4 -19
16 -3 12 -10 19 -16 16 -11 -7 -25 29 -16 44 4 6 -1 7 -11 3 -13 -5 -16 -3
-11 10 4 10 1 17 -6 17 -8 0 -6 4 3 10 12 8 10 10 -10 11 -17 1 -19 3 -8 6 16
4 16 6 3 20 -16 15 -11 38 6 28 5 -4 9 -3 9 2 0 9 82 8 105 -1 8 -3 15 0 15 7
0 8 4 6 10 -3 7 -11 10 -11 10 -2 0 10 5 10 20 2 15 -8 20 -8 20 1 0 7 8 5 20
-6 17 -16 20 -16 26 -2 3 9 12 13 20 10 26 -10 134 -8 134 2 0 6 5 3 10 -5 6
-9 10 -10 10 -3 0 8 9 9 30 3 17 -5 30 -5 30 -1 0 3 9 7 19 7 11 0 18 -3 15
-7 -2 -4 7 -6 21 -5 14 0 25 6 25 11 0 6 5 3 10 -5 6 -9 10 -10 10 -3 0 8 9 9
30 3 20 -6 30 -5 30 2 0 7 5 6 14 -1 11 -9 15 -9 19 1 3 7 6 8 6 3 1 -6 21 -9
47 -6 37 2 45 0 40 -10 -4 -8 -2 -7 6 2 9 11 21 13 41 8 16 -4 27 -3 27 2 0 6
5 7 10 4 6 -4 8 -12 4 -18 -3 -7 2 -3 10 7 12 15 16 16 16 5 0 -10 2 -11 8 -2
5 7 13 9 21 4 8 -5 27 -5 43 -1 34 10 36 10 66 -1 12 -5 22 -5 22 -1 0 4 9 8
19 8 11 0 18 -3 15 -7 -2 -4 3 -10 11 -13 9 -3 18 1 21 9 5 11 11 12 25 4 14
-7 19 -6 19 3 0 9 3 9 10 -2 9 -14 14 -7 11 13 -1 5 3 6 9 2 5 -3 18 -1 27 5
15 10 16 11 1 6 -9 -2 -19 1 -22 9 -3 10 0 12 12 8 14 -5 15 -3 5 8 -16 16
-17 39 -2 39 5 0 7 -5 3 -12 -5 -7 -3 -8 6 -3 10 6 9 11 -5 22 -11 7 -13 13
-7 13 7 0 12 5 12 11 0 5 -5 7 -12 3 -7 -5 -8 -3 -3 5 13 22 9 133 -6 142 -11
7 -9 9 6 9 14 0 16 3 8 11 -6 6 -9 18 -6 27 5 11 3 13 -7 7 -10 -6 -12 -4 -7
10 4 9 2 25 -5 33 -11 13 -10 15 3 10 14 -5 15 -3 5 18 -6 13 -14 24 -18 24
-5 0 -8 5 -8 11 0 5 4 8 9 4 5 -3 13 -1 16 5 4 6 1 9 -7 8 -8 -2 -14 8 -16 25
-2 15 -8 25 -13 22 -5 -4 -9 8 -9 24 0 17 -4 31 -10 31 -5 0 -10 5 -10 11 0 5
6 7 13 4 6 -4 4 0 -5 8 -10 8 -15 17 -11 20 3 4 1 7 -6 7 -8 0 -10 8 -6 23 5
17 4 19 -4 7 -9 -12 -11 -11 -11 8 0 12 -5 22 -11 22 -6 0 -8 7 -5 16 3 8 2
13 -2 11 -4 -3 -12 1 -19 8 -10 11 -10 15 0 18 7 3 4 6 -5 6 -11 1 -18 9 -18
20 0 11 -4 23 -10 26 -6 3 -8 -2 -5 -12 3 -10 0 -6 -7 8 -13 26 -106 119 -120
119 -4 0 -18 10 -31 23 -12 12 -29 23 -37 25 -8 2 -18 10 -23 17 -4 8 -15 11
-24 8 -12 -5 -14 -3 -8 7 5 8 3 11 -6 8 -8 -3 -20 2 -27 11 -11 13 -12 13 -7
1 5 -12 4 -12 -7 1 -7 9 -18 14 -24 12 -7 -2 -18 3 -27 11 -8 8 -17 13 -19 10
-3 -2 -18 0 -34 7 -42 16 -65 21 -101 23 -18 0 -33 5 -33 10 0 4 -9 6 -19 3
-11 -3 -30 2 -42 11 -12 8 -19 11 -16 5 5 -8 -8 -10 -40 -8 -27 2 -50 4 -53 5
-3 1 -9 1 -15 0 -32 -8 -61 -7 -71 1 -9 7 -15 6 -21 -3z m152 -463 c11 1 26
-4 34 -9 12 -9 13 -8 7 2 -7 12 -4 12 15 1 13 -7 30 -12 38 -10 7 1 10 -2 6
-8 -3 -7 0 -8 9 -5 9 3 16 1 16 -6 0 -6 4 -9 8 -6 5 3 14 -3 22 -14 7 -10 20
-16 28 -12 9 3 13 1 9 -4 -3 -6 7 -18 23 -27 17 -10 27 -23 24 -31 -3 -7 2
-16 10 -19 9 -4 16 -18 16 -34 0 -22 2 -25 10 -13 8 12 10 10 11 -10 0 -14 2
-35 3 -47 2 -17 -2 -20 -22 -17 -17 4 -22 1 -16 -8 6 -10 4 -10 -9 0 -9 8 -21
11 -27 7 -6 -4 -18 -1 -27 7 -10 7 -14 8 -10 1 5 -8 -22 -10 -103 -8 -74 2
-108 -1 -103 -8 4 -6 1 -7 -8 -1 -8 4 -25 7 -38 5 -17 -2 -21 1 -15 11 6 10 5
11 -7 2 -8 -6 -27 -11 -44 -10 -16 1 -36 -3 -42 -8 -8 -5 -13 -5 -13 1 0 6
-22 10 -49 10 -31 -1 -47 -5 -43 -12 4 -7 1 -6 -9 1 -8 5 -24 9 -37 8 -19 -1
-20 1 -10 14 9 11 9 14 1 9 -8 -5 -11 -1 -10 12 0 11 4 18 7 16 3 -2 10 8 17
21 6 13 7 22 2 18 -18 -11 -9 8 14 28 12 11 15 17 7 13 -8 -4 -6 1 5 10 11 9
19 21 18 26 -2 5 4 9 13 9 8 0 12 5 9 10 -6 9 8 14 28 11 4 0 7 4 7 10 0 5 5
7 12 3 7 -5 8 -3 4 5 -5 8 0 14 13 18 12 3 21 9 21 12 0 4 7 8 15 9 8 1 22 3
30 4 8 1 15 5 15 9 0 4 8 6 18 4 10 -2 25 1 32 5 8 5 21 5 29 2 9 -4 25 -7 36
-7z m-825 -55 c0 -5 -2 -10 -4 -10 -3 0 -8 5 -11 10 -3 6 -1 10 4 10 6 0 11
-4 11 -10z"/>
<path d="M3083 6965 c0 -8 4 -12 9 -9 5 3 6 10 3 15 -9 13 -12 11 -12 -6z"/>
</g>
</svg>
